<svg xmlns="http://www.w3.org/2000/svg" version="1.0" width="1280.000000pt" height="1012.000000pt" viewBox="0 0 1280.000000 1012.000000" preserveAspectRatio="xMidYMid meet">
<metadata fill="#917619">
Created by potrace 1.15, written by Peter Selinger 2001-2017
</metadata>
<g transform="translate(0.000000,1012.000000) scale(0.100000,-0.100000)" fill="#917619" stroke="none">
<path d="M12610 10053 c-210 -33 -809 -186 -1487 -379 -402 -114 -766 -251 -1109 -419 -533 -259 -925 -531 -1254 -871 -171 -177 -288 -330 -400 -524 -58 -101 -63 -106 -154 -152 -197 -99 -966 -538 -943 -538 26 0 769 405 911 497 37 24 70 43 71 41 2 -2 -39 -55 -91 -118 -348 -421 -494 -639 -624 -925 -146 -325 -244 -680 -401 -1462 -73 -369 -110 -498 -189 -660 -231 -475 -712 -865 -1288 -1043 -126 -39 -54 -30 127 16 214 55 402 137 579 253 52 34 90 56 86 49 -5 -7 -58 -76 -119 -153 -157 -197 -277 -360 -348 -473 -123 -195 -224 -445 -294 -720 l-28 -114 -60 -27 c-128 -58 -558 -297 -1024 -568 -342 -199 -520 -295 -717 -387 -1157 -538 -2211 -612 -2906 -203 -339 199 -589 503 -751 912 -57 145 -70 229 -64 429 5 200 20 263 97 422 163 337 494 578 907 661 123 25 396 25 513 0 269 -56 483 -170 651 -344 98 -102 131 -147 187 -258 59 -118 92 -248 105 -410 3 -31 4 -27 5 16 1 31 -5 94 -13 140 -82 468 -477 844 -995 946 -130 26 -384 23 -520 -6 -274 -58 -510 -188 -696 -382 -99 -104 -152 -181 -215 -313 -82 -173 -117 -357 -105 -560 9 -149 29 -240 83 -376 282 -712 781 -1115 1528 -1237 158 -25 586 -25 775 0 662 90 1337 344 2050 773 488 293 1116 694 1135 724 20 32 20 -4 -2 -107 -13 -65 -46 -246 -73 -403 -62 -360 -85 -438 -172 -600 -59 -111 -121 -193 -228 -304 -178 -184 -392 -323 -635 -412 -113 -41 -100 -43 38 -4 269 75 456 187 645 385 l100 104 6 -37 c3 -20 6 -94 6 -163 0 -101 3 -128 14 -132 8 -3 20 -24 26 -45 6 -25 17 -42 29 -45 11 -3 27 -21 35 -41 12 -28 21 -36 40 -36 16 0 32 -9 42 -25 12 -18 22 -23 38 -19 15 3 29 -3 46 -20 13 -15 31 -26 41 -26 10 0 31 -11 47 -25 17 -14 39 -25 51 -25 11 0 28 -11 37 -24 8 -14 25 -26 37 -28 13 -2 23 -13 27 -28 4 -17 15 -26 37 -31 17 -3 45 -16 63 -29 35 -25 54 -17 48 20 -3 22 -15 33 -50 44 -17 5 -17 7 -1 42 17 34 17 37 0 49 -22 16 -22 31 4 66 16 23 18 33 9 44 -9 10 -7 21 6 46 15 31 15 33 -1 45 -14 10 -16 21 -10 54 6 36 4 44 -14 56 -17 12 -21 26 -21 68 0 88 -24 149 -78 196 -93 82 -282 166 -384 171 -27 2 -48 4 -48 6 0 3 18 42 40 88 79 165 124 333 155 575 80 629 299 1203 673 1765 117 176 250 346 313 400 32 28 91 87 131 133 l73 83 8 -43 c5 -24 6 -125 3 -225 -5 -154 -3 -183 9 -183 18 0 25 -12 40 -69 8 -35 16 -46 31 -46 16 0 45 -43 67 -100 2 -5 15 -9 30 -7 20 1 33 -7 53 -34 23 -29 32 -35 54 -30 22 4 34 -3 66 -35 21 -21 47 -39 59 -39 11 -1 36 -14 55 -30 19 -17 46 -30 60 -30 17 0 34 -11 52 -34 15 -19 38 -36 50 -38 16 -2 26 -14 34 -38 8 -22 19 -36 35 -41 32 -8 88 -37 118 -61 32 -24 43 -12 39 43 -3 40 -6 43 -38 52 -19 5 -36 10 -38 12 -2 1 7 24 20 50 l23 47 -22 15 c-31 21 -29 42 8 93 29 40 30 44 15 56 -16 11 -16 15 3 53 27 51 26 67 0 74 -19 5 -21 10 -15 39 19 88 19 93 -6 103 -21 9 -23 18 -29 105 -8 132 -22 173 -76 232 -115 123 -419 268 -561 268 -18 0 -32 3 -30 8 2 4 34 68 71 142 106 211 166 414 213 714 117 762 384 1456 811 2116 85 130 284 412 289 407 2 -1 -12 -42 -31 -90 -88 -221 -127 -419 -128 -662 -2 -181 9 -282 49 -455 62 -266 196 -571 329 -748 55 -74 214 -225 299 -286 181 -129 400 -208 641 -231 68 -7 70 -8 87 -43 28 -60 148 -255 216 -351 96 -135 218 -277 291 -338 141 -117 353 -194 671 -243 125 -20 340 -27 340 -12 0 4 -37 23 -82 41 -74 30 -92 43 -173 125 -56 57 -151 175 -249 311 -184 253 -284 360 -402 429 -78 46 -213 96 -259 96 -13 0 -27 4 -30 10 -3 6 3 10 14 10 11 0 68 16 127 35 425 139 772 482 912 902 50 148 66 249 66 418 -1 174 -27 310 -89 463 -44 109 -42 140 9 134 24 -3 39 2 52 16 11 11 39 30 64 42 25 13 60 36 78 51 32 28 34 28 63 14 28 -15 30 -14 54 9 14 14 25 31 25 38 0 7 20 26 45 41 25 16 47 33 50 38 3 4 -12 17 -35 29 -45 23 -47 26 -23 52 13 15 14 23 5 43 -11 23 -16 25 -52 19 -35 -6 -44 -3 -75 25 -37 32 -72 40 -93 19 -20 -20 -23 -3 -6 31 l16 32 -49 56 c-26 31 -72 69 -101 86 -131 74 -341 12 -552 -163 -25 -20 -51 -35 -58 -33 -7 3 -10 -1 -7 -9 3 -8 -3 -22 -13 -31 -18 -17 -18 -20 12 -110 42 -124 86 -194 177 -281 124 -119 227 -157 320 -117 28 13 52 21 54 19 10 -12 56 -158 71 -228 26 -123 24 -323 -5 -460 -85 -402 -361 -756 -743 -955 -428 -222 -911 -216 -1283 16 -99 61 -265 213 -336 307 -122 162 -256 498 -305 768 -23 123 -26 440 -6 554 59 332 181 604 406 905 107 143 382 421 537 544 390 306 818 549 1340 759 238 96 412 155 839 283 803 243 1300 411 1300 440 0 5 -1 8 -2 8 -2 -1 -14 -4 -28 -6z m-5640 -5910 c130 -133 236 -294 367 -562 108 -221 136 -298 43 -119 -76 146 -209 372 -305 519 -81 124 -140 194 -200 237 -16 12 -24 22 -16 22 8 0 58 -44 111 -97z m-1499 -3183 c89 -92 174 -219 270 -404 84 -162 103 -215 28 -78 -50 92 -194 322 -256 409 -24 34 -70 85 -101 114 -31 29 -46 46 -32 39 14 -7 55 -43 91 -80z" fill="#917619"/>
<path d="M9886 8644 c-3 -9 -6 -30 -6 -48 0 -30 -2 -32 -28 -28 -18 2 -33 -2 -42 -13 -12 -14 -10 -23 10 -60 22 -41 23 -47 11 -82 -13 -36 -13 -38 18 -64 35 -29 28 -39 -29 -39 -28 0 -31 -4 -55 -82 -46 -143 -19 -235 102 -348 85 -80 263 -180 365 -205 16 -4 25 -12 22 -17 -17 -28 39 18 102 84 83 86 114 135 147 238 33 99 42 184 27 257 -10 50 -19 64 -63 105 -36 34 -54 45 -66 39 -9 -5 -28 -11 -42 -15 -23 -5 -28 -2 -33 20 -5 17 -19 30 -43 41 -20 8 -51 25 -67 38 -17 12 -50 32 -74 44 -32 16 -44 29 -49 52 -6 34 -28 49 -71 49 -16 0 -51 11 -78 25 -58 30 -51 28 -58 9z" fill="#917619"/>
<path d="M5271 7880 c-6 -28 -18 -62 -27 -75 -14 -21 -14 -30 -4 -56 10 -23 10 -33 1 -42 -6 -6 -11 -30 -11 -53 0 -25 -6 -47 -15 -54 -8 -7 -15 -27 -15 -45 0 -18 -7 -38 -15 -45 -9 -8 -15 -29 -15 -56 0 -34 -5 -46 -21 -54 -17 -10 -19 -18 -14 -50 5 -30 3 -40 -11 -48 -13 -7 -15 -16 -9 -38 4 -16 8 -49 9 -74 0 -25 7 -56 14 -68 8 -13 11 -34 8 -46 -5 -19 8 -35 71 -91 41 -38 109 -111 150 -162 83 -105 106 -117 161 -87 101 54 232 339 232 503 0 64 -29 124 -98 202 -29 33 -38 49 -31 60 14 22 12 24 -31 53 -29 19 -39 32 -37 48 1 16 -7 26 -32 39 -19 9 -38 26 -42 38 -5 13 -17 21 -31 21 -42 0 -73 23 -70 51 3 22 -3 28 -38 42 -41 16 -41 16 -25 41 20 30 13 55 -19 78 l-24 18 -11 -50z m184 -556 c47 -169 68 -316 63 -435 -2 -57 -9 -104 -15 -110 -10 -10 -10 -3 -1 27 6 22 8 73 5 119 -6 90 -73 410 -118 567 -16 57 -29 107 -28 113 1 17 59 -155 94 -281z" fill="#917619"/>
<path d="M9624 7794 c-27 -10 -56 -32 -82 -63 -36 -42 -39 -51 -28 -67 27 -40 25 -61 -8 -77 -25 -12 -41 -36 -81 -121 -44 -93 -53 -105 -75 -106 -36 0 -50 -18 -50 -61 0 -21 -9 -58 -20 -84 -11 -26 -18 -51 -14 -56 3 -5 23 -9 44 -9 36 0 39 -2 42 -31 4 -46 28 -57 66 -31 32 24 81 29 99 11 14 -14 48 3 63 31 14 25 33 26 25 1 -13 -41 9 -63 86 -88 145 -45 218 -26 329 86 55 56 87 100 121 166 45 87 99 228 99 258 0 24 -154 151 -226 186 -133 65 -297 88 -390 55z" fill="#917619"/>
<path d="M4833 6985 c-24 -7 -65 -27 -92 -45 -40 -25 -54 -29 -69 -21 -15 8 -24 5 -47 -19 -20 -21 -35 -28 -49 -24 -16 4 -26 -3 -39 -26 -10 -17 -25 -29 -34 -28 -10 2 -20 -8 -26 -27 -14 -45 -26 -56 -53 -49 -19 5 -27 0 -41 -25 -20 -34 -31 -39 -39 -16 -8 21 -48 19 -68 -4 -16 -18 -15 -19 23 -35 23 -8 50 -25 61 -36 16 -16 24 -18 47 -9 21 8 28 7 35 -6 6 -9 23 -15 43 -15 24 0 38 -6 45 -20 6 -11 19 -20 29 -20 10 0 29 -8 42 -19 13 -10 40 -21 60 -25 25 -4 38 -13 42 -26 4 -14 14 -20 35 -20 16 0 37 -8 46 -19 13 -14 26 -17 60 -14 26 3 46 1 50 -6 5 -8 13 -8 28 0 11 6 34 9 51 6 26 -3 44 6 112 58 44 33 115 78 157 99 90 46 106 68 82 124 -43 105 -265 250 -419 275 -16 3 -49 -1 -72 -8z m386 -259 c30 -8 58 -19 64 -25 5 -5 -10 -3 -34 6 -24 8 -82 17 -129 20 -74 5 -407 -9 -540 -22 -68 -6 103 24 195 34 111 13 377 5 444 -13z" fill="#917619"/>
<path d="M6129 6726 c-5 -5 -581 -76 -613 -76 -11 0 -17 -3 -13 -6 12 -12 422 28 547 52 126 25 154 34 108 34 -13 0 -27 -2 -29 -4z" fill="#917619"/>
<path d="M5314 6557 c-81 -71 -130 -106 -216 -156 -68 -39 -81 -51 -82 -73 -1 -15 -12 -38 -25 -52 -16 -17 -21 -31 -16 -45 4 -14 -1 -31 -14 -50 -24 -33 -26 -52 -10 -68 8 -8 8 -21 -1 -49 -11 -33 -10 -39 4 -50 14 -10 16 -21 10 -62 -4 -33 -2 -52 5 -56 7 -5 9 -20 5 -43 -4 -21 -2 -44 6 -58 9 -18 10 -31 2 -55 -9 -23 -8 -36 1 -51 10 -16 8 -22 -9 -40 -19 -19 -20 -24 -8 -57 7 -20 13 -56 14 -79 0 -48 -1 -47 34 -31 31 14 41 40 26 68 -14 26 -15 24 35 36 30 7 41 15 45 34 5 22 12 25 57 28 41 2 52 7 56 22 3 13 14 20 30 20 40 0 57 10 57 35 0 18 9 26 43 38 36 12 42 18 39 40 -2 20 6 32 40 55 68 48 125 113 137 157 29 107 0 336 -60 466 -60 129 -120 151 -205 76z m106 -116 c-15 -96 -59 -229 -111 -340 -40 -86 -198 -371 -205 -371 -2 0 31 71 75 158 152 305 238 529 242 632 0 14 3 19 6 11 3 -7 0 -48 -7 -90z" fill="#917619"/>
<path d="M3938 6438 c-48 -60 -73 -104 -93 -167 -23 -70 -17 -213 13 -291 11 -30 46 -122 79 -205 56 -145 58 -153 57 -243 0 -92 0 -93 18 -70 26 34 102 192 131 273 14 39 31 105 38 147 11 68 11 87 -5 160 -30 142 -159 438 -190 438 -7 0 -29 -19 -48 -42z" fill="#917619"/>
<path d="M3060 6242 c78 -60 107 -110 211 -351 83 -195 145 -274 259 -331 85 -43 240 -68 240 -39 0 30 -77 236 -124 334 -81 166 -139 223 -316 311 -91 45 -254 104 -286 104 -15 -1 -11 -7 16 -28z" fill="#917619"/>
<path d="M6960 5819 c-429 -277 -777 -496 -870 -546 -173 -94 -422 -173 -640 -204 -135 -19 -437 -17 -585 4 -331 48 -719 184 -953 334 -107 68 -38 11 86 -71 266 -177 526 -284 822 -338 155 -29 466 -31 615 -4 295 53 583 165 841 328 107 67 1014 697 1014 704 0 7 8 11 -330 -207z" fill="#917619"/>
<path d="M3480 5344 c-14 -2 -52 -9 -85 -15 -111 -20 -214 -87 -353 -231 -66 -67 -135 -158 -128 -166 3 -2 18 5 35 17 64 46 105 53 356 61 269 9 304 16 401 78 71 46 114 95 155 177 l30 60 -33 8 c-39 8 -342 18 -378 11z" fill="#917619"/>
<path d="M4574 3846 c-38 -19 -95 -58 -127 -87 -56 -50 -65 -53 -109 -34 -13 5 -26 -6 -54 -45 -34 -48 -40 -51 -69 -46 -30 6 -33 4 -56 -46 -19 -43 -29 -53 -48 -53 -22 0 -27 -7 -40 -65 l-16 -65 -42 0 c-49 -1 -45 3 -71 -57 -23 -53 -31 -57 -57 -28 -26 29 -62 25 -96 -11 -32 -34 -36 -49 -16 -49 31 0 117 -32 153 -56 37 -26 40 -26 67 -10 35 20 51 20 67 1 8 -10 31 -15 68 -15 46 0 59 -4 78 -25 18 -19 33 -25 67 -25 34 0 48 -5 65 -25 19 -21 30 -25 82 -25 55 0 60 -2 66 -25 6 -23 11 -25 65 -25 48 0 60 -3 69 -20 13 -24 40 -25 102 -3 45 16 48 16 66 -1 19 -16 22 -16 76 11 48 23 60 26 77 15 18 -12 31 -2 147 110 70 68 169 152 220 186 51 35 100 75 109 88 57 87 -46 214 -266 327 -174 90 -329 137 -450 137 -46 0 -72 -7 -127 -34z m759 -336 c50 -15 41 -25 -9 -11 -72 19 -160 23 -260 11 -160 -18 -556 -88 -738 -130 -93 -22 -171 -38 -173 -36 -5 4 429 122 522 141 170 35 269 44 445 41 97 -2 192 -9 213 -16z" fill="#917619"/>
<path d="M2900 3311 c-69 -8 -88 -19 -137 -78 -90 -110 -133 -277 -112 -440 l11 -93 82 -24 c169 -51 326 -61 434 -27 106 33 147 76 183 194 l19 62 -30 28 -30 27 25 0 c40 0 63 17 70 50 7 34 16 41 59 49 42 9 46 39 11 67 l-27 22 23 31 c27 37 21 45 -44 55 -22 4 -51 16 -65 26 -31 25 -40 25 -68 -1 -19 -18 -27 -19 -60 -10 -22 6 -58 11 -81 11 -23 0 -54 5 -68 10 -21 8 -35 7 -58 -5 -27 -14 -31 -13 -43 3 -7 9 -16 25 -19 35 -4 9 -9 16 -13 16 -4 -1 -32 -5 -62 -8z" fill="#917619"/>
<path d="M1971 2778 c-71 -20 -118 -63 -156 -144 -37 -77 -37 -82 -1 -123 l21 -24 -28 7 c-36 8 -61 -6 -77 -43 -10 -24 -21 -32 -54 -38 -49 -10 -61 -41 -25 -66 l22 -16 -27 -31 c-14 -17 -26 -35 -26 -39 0 -4 22 -14 50 -21 27 -7 60 -24 72 -37 25 -27 54 -30 79 -8 15 15 22 14 78 -5 33 -11 68 -20 77 -20 10 0 32 -5 50 -12 25 -9 39 -9 57 -1 22 10 26 8 42 -22 16 -29 24 -33 72 -39 69 -8 105 8 171 78 94 100 152 257 152 413 l0 84 -76 36 c-154 71 -364 103 -473 71z" fill="#917619"/>
<path d="M2840 2573 c-14 -2 -57 -10 -96 -19 l-72 -15 -10 -42 c-35 -138 -37 -303 -6 -417 36 -128 98 -188 222 -216 l76 -17 29 34 c24 28 29 30 24 12 -7 -29 13 -55 54 -68 23 -8 41 -24 54 -48 24 -45 60 -51 75 -12 11 30 11 30 52 5 18 -11 36 -20 41 -20 4 0 7 24 7 54 0 30 4 57 9 60 5 3 14 20 20 36 9 27 7 33 -13 51 -22 19 -23 25 -19 138 4 103 2 121 -14 136 -16 17 -16 19 14 44 29 25 30 29 24 77 -9 68 -30 98 -104 144 -89 57 -264 96 -367 83z" fill="#917619"/>
<path d="M5808 2497 c-32 -7 -60 -16 -63 -18 -3 -3 19 -45 47 -92 137 -225 321 -435 433 -493 119 -62 304 -107 510 -124 120 -10 205 -2 160 15 -141 54 -182 91 -374 339 -181 235 -257 302 -401 352 -89 31 -226 40 -312 21z" fill="#917619"/>
<path d="M2571 2434 c0 -11 3 -14 6 -6 3 7 2 16 -1 19 -3 4 -6 -2 -5 -13z" fill="#917619"/>
<path d="M2561 2394 c0 -11 3 -14 6 -6 3 7 2 16 -1 19 -3 4 -6 -2 -5 -13z" fill="#917619"/>
<path d="M2546 2344 c-4 -14 -5 -28 -3 -31 3 -2 8 8 11 23 4 14 5 28 3 31 -3 2 -8 -8 -11 -23z" fill="#917619"/>
<path d="M3700 727 c-43 -16 -116 -65 -149 -101 -20 -21 -31 -25 -55 -21 -28 6 -33 2 -50 -30 -16 -29 -25 -35 -45 -33 -22 3 -29 -4 -46 -39 -14 -32 -24 -42 -37 -37 -13 4 -18 -3 -23 -33 -13 -73 -14 -76 -47 -69 -27 5 -31 3 -45 -34 -18 -45 -23 -47 -58 -24 -24 15 -26 15 -57 -16 l-32 -33 53 -14 c29 -7 66 -21 82 -30 24 -14 33 -15 49 -5 24 15 50 16 50 2 0 -5 22 -10 49 -10 32 0 51 -5 54 -14 3 -7 26 -17 50 -20 25 -4 51 -14 58 -22 9 -11 23 -14 49 -10 39 6 53 0 63 -27 5 -14 14 -16 45 -11 28 4 41 2 51 -10 16 -19 33 -20 78 -4 25 9 38 9 52 1 15 -9 25 -7 51 8 21 13 42 18 57 14 21 -5 36 6 103 77 42 46 116 112 164 147 89 66 104 88 91 139 -31 126 -464 312 -605 259z m533 -255 c15 -4 -33 -7 -105 -7 -114 0 -159 -6 -318 -38 -102 -21 -236 -51 -299 -68 -63 -16 -116 -28 -118 -26 -7 8 314 100 427 123 137 27 336 35 413 16z" fill="#917619"/>
</g>
</svg>