<svg xmlns="http://www.w3.org/2000/svg" xmlns:xlink="http://www.w3.org/1999/xlink" fill="#917619" version="1.1" id="Layer_1" viewBox="0 0 512 512" xml:space="preserve">
<g>
	<g>
		<g>
			<path d="M87.956,268.261c0,44.241,16.603,85.926,46.851,117.955c-8.683,3.578-14.814,12.128-14.814,22.088     c0,10.285,6.537,19.072,15.674,22.426v9.992h15.723v-9.758c9.495-3.157,16.364-12.119,16.364-22.66     c0-9.959-6.131-18.51-14.814-22.088c30.248-32.029,46.851-73.714,46.851-117.955V112.113H87.956V268.261z M143.872,416.46     c-4.498,0-8.157-3.659-8.157-8.156c0-4.498,3.659-8.157,8.157-8.157s8.157,3.659,8.157,8.157     C152.029,412.801,148.37,416.46,143.872,416.46z M103.679,127.836h80.387v80.184h-80.387V127.836z M103.679,223.743h80.387     v44.518c0,39.025-14.215,75.866-40.193,104.609c-25.979-28.743-40.194-65.584-40.194-104.609V223.743z" fill="#917619"/>
			<polygon points="151.389,448.059 135.666,448.059 135.666,496.277 111.557,496.277 111.557,512 175.498,512 175.498,496.277      151.389,496.277    " fill="#917619"/>
			<rect x="111.561" y="240.511" width="16.771" height="15.723" fill="#917619"/>
			<rect x="128.333" y="257.282" width="14.675" height="15.723" fill="#917619"/>
			<rect x="152.441" y="297.114" width="14.675" height="15.723" fill="#917619"/>
			<rect x="159.779" y="233.174" width="15.723" height="15.723" fill="#917619"/>
			<rect x="135.67" y="328.561" width="16.771" height="15.723" fill="#917619"/>
			<rect x="119.947" y="288.729" width="15.723" height="15.723" fill="#917619"/>
			<polygon points="175.498,175.525 175.498,136.742 152.437,136.742 152.437,152.465 159.775,152.465 159.775,175.525    " fill="#917619"/>
			<rect x="159.779" y="183.908" width="15.723" height="15.723" fill="#917619"/>
			<path d="M312.212,112.113v156.148c0,44.241,16.603,85.926,46.851,117.955c-8.683,3.578-14.814,12.128-14.814,22.088     c0,10.308,6.565,19.11,15.734,22.447v9.971h15.723v-9.778c9.463-3.176,16.303-12.122,16.303-22.64     c0-9.959-6.13-18.51-14.814-22.088c30.248-32.029,46.851-73.714,46.851-117.955V112.113H312.212z M368.129,416.46     c-4.498,0-8.157-3.659-8.157-8.156c0-4.498,3.659-8.157,8.157-8.157s8.156,3.659,8.156,8.157     C376.285,412.801,372.626,416.46,368.129,416.46z M408.321,268.261c0,39.025-14.214,75.866-40.192,104.61     c-25.979-28.744-40.193-65.584-40.193-104.61v-44.518h80.386V268.261z M408.321,208.02h-80.386v-80.184h80.386V208.02z" fill="#917619"/>
			<polygon points="375.705,448.059 359.982,448.059 359.982,496.277 336.922,496.277 336.922,512 400.862,512 400.862,496.277      375.705,496.277    " fill="#917619"/>
			<rect x="336.926" y="240.511" width="14.675" height="15.723" fill="#917619"/>
			<rect x="351.601" y="257.282" width="16.771" height="15.723" fill="#917619"/>
			<rect x="376.758" y="297.114" width="14.675" height="15.723" fill="#917619"/>
			<rect x="384.095" y="233.174" width="16.771" height="15.723" fill="#917619"/>
			<rect x="359.986" y="328.561" width="16.771" height="15.723" fill="#917619"/>
			<rect x="344.263" y="288.729" width="15.723" height="15.723" fill="#917619"/>
			<polygon points="384.091,175.525 399.814,175.525 399.814,136.742 376.753,136.742 376.753,152.465 384.091,152.465    " fill="#917619"/>
			<rect x="384.095" y="183.908" width="16.771" height="15.723" fill="#917619"/>
			<path d="M254.811,99.991l40.778-42.3l3.267-3.267c12.433-12.433,12.433-32.664,0-45.097C287.145-2.387,268.516-3.066,256,7.285     c-12.516-10.351-31.145-9.672-42.856,2.04c-12.389,12.39-12.434,32.521-0.132,44.964L254.811,99.991z M224.262,20.443     c3.152-3.152,7.291-4.727,11.431-4.727c4.139,0,8.28,1.575,11.431,4.726l8.877,8.879l8.875-8.878     c6.305-6.303,16.56-6.302,22.862,0c6.303,6.303,6.303,16.559,0,22.862l-3.318,3.319l-29.308,30.4l-30.609-33.466l-0.242-0.253     C217.959,37.002,217.959,26.746,224.262,20.443z" fill="#917619"/>
			<rect x="320.154" y="32.969" width="16.771" height="15.723" fill="#917619"/>
			<rect x="296.046" y="72.798" width="16.771" height="15.723" fill="#917619"/>
			<rect x="247.828" y="119.967" width="15.723" height="15.723" fill="#917619"/>
			<rect x="247.828" y="176.57" width="15.723" height="15.723" fill="#917619"/>
			<rect x="280.323" y="136.739" width="15.723" height="15.723" fill="#917619"/>
			<rect x="216.382" y="136.739" width="15.723" height="15.723" fill="#917619"/>
			<rect x="344.263" y="64.412" width="15.723" height="15.723" fill="#917619"/>
			<rect x="175.502" y="32.969" width="16.771" height="15.723" fill="#917619"/>
			<rect x="199.611" y="72.798" width="16.771" height="15.723" fill="#917619"/>
			<rect x="152.441" y="64.412" width="14.675" height="15.723" fill="#917619"/>
		</g>
	</g>
</g>
</svg>