<svg xmlns="http://www.w3.org/2000/svg" xmlns:xlink="http://www.w3.org/1999/xlink" id="Graphic_Elements" data-name="Graphic Elements" viewBox="0 0 1200 800"><defs fill="#000000"><style>.cls-1{fill:url(#linear-gradient);}.cls-2{fill:url(#linear-gradient-2);}</style><linearGradient id="linear-gradient" x1="249.5" y1="566.85" x2="501.05" y2="306.37" gradientUnits="userSpaceOnUse" fill="#000000"><stop offset="0" stop-color="#917619" fill="#000000"/><stop offset="0.26" stop-color="#917619" fill="#000000"/><stop offset="0.31" stop-color="#917619" fill="#000000"/><stop offset="0.36" stop-color="#917619" fill="#000000"/><stop offset="0.42" stop-color="#917619" fill="#000000"/><stop offset="0.48" stop-color="#917619" fill="#000000"/><stop offset="0.49" stop-color="#917619" fill="#000000"/><stop offset="0.5" stop-color="#917619" fill="#000000"/><stop offset="0.53" stop-color="#917619" fill="#000000"/><stop offset="0.56" stop-color="#917619" fill="#000000"/><stop offset="0.6" stop-color="#917619" fill="#000000"/><stop offset="0.64" stop-color="#917619" fill="#000000"/><stop offset="0.74" stop-color="#917619" fill="#000000"/><stop offset="1" stop-color="#917619" fill="#000000"/></linearGradient><linearGradient id="linear-gradient-2" x1="622.98" y1="648.71" x2="1026.42" y2="230.94" xlink:href="#linear-gradient" fill="#000000"/></defs><path class="cls-1" d="M640.49,582.22c-18.18-32.37-48.35-77.78-93-120.77a70,70,0,0,0,32.08-36.69,55.16,55.16,0,0,0,2.68-30.28c-2.06-9.78-10.09-22.57-21.45-28.11-7-3.38-14.06-3.48-20.56-.28-16.49,8.11-24.36,31.51-22.44,49.45,1,9.59,4.38,18.45,8.89,27-10.81-9.27-22.35-18.31-34.64-26.95a62.53,62.53,0,0,0,16.74-74.89C503.31,329,494.26,320.16,484,316.45a32.52,32.52,0,0,0-21.3-.33,2.65,2.65,0,0,0-.86.29l-.08,0a26.79,26.79,0,0,0-11.53,8.09c-4.87,6-7.22,14.19-7,24.42a67.28,67.28,0,0,0,15.23,41,112,112,0,0,0,9.31,9.77q-17-10.38-35.76-19.54c1.72-5.6,3-10.38,3.9-14.86,3.17-15.35,2.59-28.05-1.83-40-5-13.51-14.77-24.49-26.8-30.12-8.82-4.13-18.19-5.07-26.39-2.65-9.4,2.77-16.86,10.23-19,19-1.84,7.56-.07,16.13,5.4,26.2a84.39,84.39,0,0,0,19.41,23.55,432.88,432.88,0,0,0-53.91-15,45.43,45.43,0,0,0,3.81-25.56c-1.09-8.87-4.32-18.09-10.15-29-4.71-8.83-12.43-21.27-24.93-27.37-10.64-5.2-26.28-4.38-34.55,5.44a3.21,3.21,0,0,0-.68.65,3.45,3.45,0,0,0-.43.83c-.13.18-.27.34-.4.53-2.5,3.79-4,8.44-4.48,14.21-1.46,16.47,5.6,33.71,18.89,46.1a68.46,68.46,0,0,0,9.18,7.19,491.54,491.54,0,0,0-51.27-2.9c2.17-8.72,3-16.39,2.37-23.35a48.16,48.16,0,0,0-8.29-22.45h0c-10.11-15.16-26.84-25.57-42.6-26.51a27.76,27.76,0,0,0-12,1.48c-11.91,4.62-16.06,19.5-13.91,31.15,2.65,14.45,13,28.07,27.78,36.43a69,69,0,0,0,9.32,4.4q-20.24,1.32-41.51,4.24A16.57,16.57,0,0,0,152.9,337c-13.65-7.14-26-11.63-37.7-13.72-1.67-.29-3.35-.55-5-.75-16.1-1.95-30.42,1.84-43.77,11.59C59.63,339.1,54.81,344.77,52,351c-3.36,7.58-3.43,16.08-.17,22.74a29.23,29.23,0,0,0,6,8.07c8,7.86,18.07,10.41,27.75,10.41,12,0,23.44-3.93,29.69-6.53A104.27,104.27,0,0,0,142.65,369l1.18-1c5.35-4.44,15.22-12.64,16.55-20.07q16.41-2.25,32.19-3.5A65,65,0,0,0,179,350.3a44.17,44.17,0,0,0-18.86,21.5c-3.73,9.49-3.37,20.26,1,28.81,4.67,9.22,14,15.66,23.86,16.42.7.05,1.41.08,2.13.08a38.07,38.07,0,0,0,13.74-2.85c10.57-4.12,20.12-11.64,27.61-21.74,6.46-8.7,11.41-19.32,14.7-31.57,1.47-5.45,2.75-11.79,1.58-18.13a471.61,471.61,0,0,1,62.7,5.32c1.59.54,3.17,1,4.71,1.46a188.91,188.91,0,0,0-31.48,9,57.34,57.34,0,0,0-11.35,5.48c-9.36,6.21-15.88,15.55-17.91,25.63a32.19,32.19,0,0,0,4.94,24.66c5.44,8.15,15.53,12.94,26.16,12.94a34.87,34.87,0,0,0,8-.91c10.85-2.51,21.26-10,29.33-21.14a78.29,78.29,0,0,0,12.69-27.91,80.53,80.53,0,0,0,1.94-18.91c0-.39,0-.82,0-1.26a20.94,20.94,0,0,0-.14-4A424.36,424.36,0,0,1,408,376.33a145.73,145.73,0,0,0-48.7,3.8c-7.5,1.9-17,4.95-24.1,11.73-6.41,6.15-11.09,16.75-7.11,26.6,5.89,14.56,21.27,20.59,35.1,20.59a46.3,46.3,0,0,0,6.07-.4c10.66-1.42,21.38-6.24,31-13.8-5,10.13-2.44,23.77,6.35,32.2,6.32,6.07,15.28,9.37,24.72,9.37a41.26,41.26,0,0,0,9.49-1.12,51.3,51.3,0,0,0,18-8.42,30.43,30.43,0,0,0-2.38,6.75,31.4,31.4,0,0,0,1.13,17,3.11,3.11,0,0,0,.19.64,1.48,1.48,0,0,0,.13.21,31.23,31.23,0,0,0,9.63,13.38A39.42,39.42,0,0,0,486,502.51a52.18,52.18,0,0,0,8,.61,53.56,53.56,0,0,0,29-8.52c10.23-6.66,16.05-16.5,21.67-26l0,0a2.48,2.48,0,0,0,.48-.49A524,524,0,0,1,635,585.3a3.15,3.15,0,0,0,2.75,1.61,3.19,3.19,0,0,0,1.54-.4A3.15,3.15,0,0,0,640.49,582.22ZM179.62,271.42a19.28,19.28,0,0,1,7.06-1.13c.71,0,1.46,0,2.25.07,13.65.81,28.81,10.34,37.73,23.72h0a42,42,0,0,1,7.26,19.47,63.26,63.26,0,0,1-1.87,19.94,123.15,123.15,0,0,0-54.74-60.88A13.59,13.59,0,0,1,179.62,271.42Zm14.7,56.24c-13.15-7.46-22.38-19.46-24.7-32.1-1.11-6.06-.19-13.17,3.08-18.28a116.75,116.75,0,0,1,53.75,59.18c-1.37,0-2.74,0-4.12.08C213.22,335.24,203.47,332.85,194.32,327.66Zm-54.51,35.52-1.23,1a98.11,98.11,0,0,1-25.66,15.68c-10.13,4.21-35.33,12.4-50.61-2.57A22.93,22.93,0,0,1,57.53,371c-2.45-5-2.35-11.53.27-17.43,2.31-5.22,6.45-10,12.3-14.31,10-7.29,20.54-10.87,32.11-10.87a61.25,61.25,0,0,1,7.2.44c1.57.19,3.13.43,4.69.71,11.07,2,22.81,6.25,35.89,13.09l.67.36a683.06,683.06,0,0,0-76.61,16.34,3.15,3.15,0,1,0,1.65,6.07,674.42,674.42,0,0,1,77.8-16.45C152.13,351.58,148.5,356,139.81,363.18Zm26.9,34.58A29.35,29.35,0,0,1,166,374.1a37.88,37.88,0,0,1,16.2-18.38c6.59-3.88,14-6.05,23.11-8.1,8.24-1.86,17.63-3.64,27.11-3.64l1.13,0a728.52,728.52,0,0,0-60,62A24.42,24.42,0,0,1,166.71,397.76Zm70.34-38.45c-3.09,11.49-7.69,21.4-13.67,29.46-6.79,9.14-15.38,15.93-24.85,19.63a30.11,30.11,0,0,1-13.1,2.35,20.93,20.93,0,0,1-6.38-1.56,720.63,720.63,0,0,1,59.81-61.53A44.11,44.11,0,0,1,237.05,359.31ZM462.61,465a25.57,25.57,0,0,1,18.49-19,36.31,36.31,0,0,1,8.51-.88c1.35,0,2.66,0,3.9.11h0c11,.54,20.71,2.72,28.7,6.48,1.42.75,10.63,7.06,15.63,11a184.24,184.24,0,0,0-75.13,13.08A24.84,24.84,0,0,1,462.61,465ZM404.3,439a19.31,19.31,0,0,1,2.6-13.1c3.74-5.76,10.82-9.67,21.64-12a104.25,104.25,0,0,1,21.65-2.28h.64c7.41-.32,14.65,1.18,20.74,2.67l.61.15c3.78.88,6.39,1.65,8.2,2.27-12.36,8.71-23.26,14.63-34,18.49-14.53,5.21-29,6.53-41.82,3.81Zm26-52.55c13,6.35,25.3,13.2,37,20.45a70.73,70.73,0,0,0-16.68-1.56,112,112,0,0,0-23.41,2.42,56.52,56.52,0,0,0-14.43,4.93C420,404.23,425.64,394.9,430.31,386.45ZM488.62,421c10.16,7.15,19.81,14.57,29,22.17A89.13,89.13,0,0,0,493.82,439a49.16,49.16,0,0,0-14.22.95,30,30,0,0,0-5.63,2c2.18-2.94,4.18-6,6.12-9A103,103,0,0,1,488.62,421Zm87.5-25.21a48.75,48.75,0,0,1-2.42,26.78,63.63,63.63,0,0,1-24.91,30.82,102.58,102.58,0,0,0,3.54-83.14,19.42,19.42,0,0,1,5.74,1.8C567.51,376.63,574.42,387.7,576.12,395.77Zm-33.07-24a16.35,16.35,0,0,1,2.69-1l0,.12a96,96,0,0,1-4.62,83.49c-8.37-12.71-15.55-25.45-17-39.45C522.44,399.42,529.21,378.54,543.05,371.74Zm-61.18-49.37c8.7,3.15,16.45,10.82,21.26,21a56.26,56.26,0,0,1-13.78,66.26c2.93-13.84,1.95-29.62-2.9-46-4.52-15.25-11.75-29.54-18.48-42.36A26.5,26.5,0,0,1,481.87,322.37ZM463.35,386a61.15,61.15,0,0,1-13.8-37.13c-.14-6,.71-14.34,5.57-20.3a20,20,0,0,1,6.78-5.26c6.73,12.81,14.05,27.13,18.51,42.18,4.35,14.66,5.4,28.73,3.14,41.1-3-3.39-6.27-6.51-9.47-9.55A127,127,0,0,1,463.35,386Zm-73.11-88.41a34.07,34.07,0,0,1,14.4,3.38c10.54,4.93,19.13,14.62,23.57,26.6,4,10.77,4.49,22.38,1.56,36.52-.57,2.76-1.28,5.66-2.15,8.83a189.06,189.06,0,0,0-46.4-73.77c.49-.18,1-.35,1.48-.5A26.57,26.57,0,0,1,390.24,297.54Zm14.43,69c-14.45-8.88-25.15-19.57-31.81-31.8-4.69-8.63-6.27-15.73-4.81-21.7a19.55,19.55,0,0,1,7.4-10.79,182.78,182.78,0,0,1,46.37,73.12c-2.7-1.23-5.44-2.43-8.2-3.62A82.83,82.83,0,0,1,404.67,366.54ZM287.3,267.4A26.52,26.52,0,0,1,298.79,270c10.86,5.3,17.84,16.62,22.15,24.68,5.45,10.21,8.46,18.73,9.45,26.81a40.93,40.93,0,0,1-1.6,18c-1.58-6-4.81-11.57-8.23-16.77A211.24,211.24,0,0,0,273.64,272,20.8,20.8,0,0,1,287.3,267.4Zm-3.09,60.09C272.33,316.4,266,301.1,267.3,286.55a25.83,25.83,0,0,1,2.47-9.57,204.56,204.56,0,0,1,45.53,49.2c3.75,5.7,7.25,11.81,8,18.2Q316,343,308.4,341.83A68.69,68.69,0,0,1,284.21,327.49Zm-26.65,63.43c1.69-8.45,7.24-16.33,15.21-21.62a52.66,52.66,0,0,1,10.13-4.86,186,186,0,0,1,37.51-9.93c.59-.09,1.33-.26,2.16-.45l.72-.16c-7,10-16,21.84-26.9,31.9-11.59,10.72-23.86,18.15-36.51,22.12A25.79,25.79,0,0,1,257.56,390.92Zm68.77-15a71.7,71.7,0,0,1-11.65,25.66c-7.18,9.88-16.29,16.52-25.65,18.7-9.61,2.23-19.61-.59-25.48-6.9,12.91-4.37,25.38-12.06,37.11-22.92C311.79,380.12,321,368.1,328.13,358c0,.15,0,.32,0,.47A73.89,73.89,0,0,1,326.33,375.88Zm13.25,20.53c6-5.76,14.53-8.46,21.28-10.17a139,139,0,0,1,60.79-1.61,148.13,148.13,0,0,1-88,30.48C331.46,408.28,335.08,400.72,339.58,396.41Zm28.87,36c-10.95,1.45-24.42-1.58-31.51-11.06a154.66,154.66,0,0,0,80.93-26.21A113,113,0,0,1,404,413.06C393.49,423.88,380.86,430.75,368.45,432.41Zm70.95,26.76c-10.62,2.51-21.5,0-28.4-6.66a22.3,22.3,0,0,1-4.75-6.77,71.91,71.91,0,0,0,11.83,1,90.38,90.38,0,0,0,30.4-5.55,137.31,137.31,0,0,0,28-14.16c-.56.84-1.1,1.69-1.65,2.53a102.74,102.74,0,0,1-9.2,12.81C460.09,448.49,451.09,456.42,439.4,459.17Zm80.19,30.15a47.11,47.11,0,0,1-32.59,7,33.1,33.1,0,0,1-15.54-6.35,24.74,24.74,0,0,1-6.6-8.2A177.93,177.93,0,0,1,537.12,469C532.35,476.93,527.4,484.23,519.59,489.32Z" fill="#000000"/><path class="cls-2" d="M1146.91,351c-2.77-6.25-7.6-11.91-14.36-16.85-13.35-9.75-27.67-13.54-43.77-11.59-1.69.2-3.37.46-5,.75-11.71,2.09-24,6.58-37.7,13.72a16.8,16.8,0,0,0-6.12,4.72q-21.27-2.94-41.49-4.24a70.61,70.61,0,0,0,9.31-4.39c14.74-8.36,25.13-22,27.78-36.43,2.14-11.65-2-26.53-13.91-31.15a27.85,27.85,0,0,0-12-1.48c-15.76.94-32.48,11.35-42.6,26.51A48.16,48.16,0,0,0,958.75,313c-.58,7,.21,14.62,2.37,23.34a487.9,487.9,0,0,0-51.22,2.89,69.53,69.53,0,0,0,9.13-7.17c13.29-12.39,20.35-29.63,18.89-46.1-.51-5.77-2-10.42-4.48-14.21-.12-.19-.27-.35-.4-.53a2.86,2.86,0,0,0-.43-.83,3,3,0,0,0-.68-.66c-8.27-9.81-23.91-10.62-34.54-5.43-12.51,6.1-20.22,18.55-24.94,27.37-5.83,10.92-9.06,20.13-10.15,29a45.47,45.47,0,0,0,3.8,25.54,432.24,432.24,0,0,0-53.84,15,84.14,84.14,0,0,0,19.35-23.49c5.48-10.07,7.25-18.64,5.41-26.2-2.14-8.76-9.6-16.22-19-19-8.2-2.42-17.57-1.48-26.39,2.65-12,5.63-21.79,16.61-26.8,30.12-4.42,11.93-5,24.63-1.83,40,.93,4.47,2.18,9.23,3.9,14.82q-18.66,9.08-35.62,19.44a108.87,108.87,0,0,0,9.18-9.63,67.34,67.34,0,0,0,15.23-41c.24-10.23-2.11-18.45-7-24.42a26.9,26.9,0,0,0-11.53-8.09l-.08,0a3.22,3.22,0,0,0-.89-.3,32.56,32.56,0,0,0-21.27.34c-10.26,3.71-19.3,12.56-24.82,24.27a62.56,62.56,0,0,0,16.72,74.87c-12.27,8.62-23.78,17.64-34.58,26.89,4.5-8.54,7.82-17.38,8.85-26.94,1.92-17.94-5.94-41.35-22.44-49.45-6.5-3.2-13.61-3.1-20.55.28-11.37,5.54-19.4,18.33-21.45,28.11a55,55,0,0,0,2.68,30.28,70,70,0,0,0,32,36.68c-44.8,43.19-75.07,88.85-93.28,121.37a3.15,3.15,0,1,0,5.49,3.08A523.9,523.9,0,0,1,653.73,468a2.47,2.47,0,0,0,.5.52l0,0c5.62,9.52,11.44,19.37,21.67,26a53.57,53.57,0,0,0,29,8.52,52.18,52.18,0,0,0,8-.61,39.47,39.47,0,0,0,18.49-7.66A31.32,31.32,0,0,0,741,481.47c0-.08.09-.13.13-.21a3.11,3.11,0,0,0,.19-.64,31.39,31.39,0,0,0,1.12-17,29.94,29.94,0,0,0-2.38-6.75,51.35,51.35,0,0,0,18,8.42,41.13,41.13,0,0,0,9.49,1.12c9.43,0,18.4-3.3,24.71-9.37,8.79-8.43,11.32-22.07,6.35-32.2,9.63,7.56,20.36,12.38,31,13.8a46.3,46.3,0,0,0,6.07.4c13.83,0,29.21-6,35.1-20.59,4-9.85-.7-20.45-7.11-26.6-7.07-6.78-16.59-9.83-24.1-11.73a145.71,145.71,0,0,0-48.83-3.79,424.14,424.14,0,0,1,73.84-23.25,20.41,20.41,0,0,0-.13,4.06c0,.44,0,.87,0,1.26a80.5,80.5,0,0,0,2,18.91,78,78,0,0,0,12.69,27.91c8.07,11.12,18.48,18.63,29.32,21.14a35,35,0,0,0,8,.91c10.64,0,20.72-4.79,26.16-12.94a32.19,32.19,0,0,0,4.94-24.66c-2-10.08-8.55-19.42-17.9-25.63a57.88,57.88,0,0,0-11.35-5.48,188.75,188.75,0,0,0-31.49-9c1.6-.44,3.23-1,4.88-1.51a472.77,472.77,0,0,1,62.54-5.29c-1.18,6.35.11,12.69,1.57,18.15,3.3,12.25,8.24,22.87,14.7,31.57,7.49,10.1,17,17.62,27.62,21.74a38,38,0,0,0,13.74,2.85c.72,0,1.43,0,2.13-.08,9.81-.76,19.18-7.2,23.86-16.42,4.33-8.55,4.69-19.32,1-28.81A44.24,44.24,0,0,0,1020,350.3a64.7,64.7,0,0,0-13.62-5.85q15.79,1.26,32.23,3.5c1.32,7.43,11.19,15.64,16.54,20.08l1.19,1a104.22,104.22,0,0,0,27.3,16.68c6.25,2.6,17.68,6.53,29.69,6.53,9.68,0,19.73-2.55,27.75-10.41a29.27,29.27,0,0,0,6-8.07C1150.33,367.09,1150.27,358.59,1146.91,351ZM914.74,327.49a68.68,68.68,0,0,1-24.06,14.3q-7.62,1.15-15.07,2.56c.79-6.38,4.29-12.48,8-18.17A204.94,204.94,0,0,1,929.17,277a26.07,26.07,0,0,1,2.48,9.57C932.94,301.1,926.62,316.4,914.74,327.49Zm-46.19-6c1-8.08,4-16.6,9.46-26.81,4.3-8.05,11.28-19.38,22.14-24.68a26.59,26.59,0,0,1,11.5-2.59,20.82,20.82,0,0,1,13.66,4.6,211.08,211.08,0,0,0-46.93,50.72c-3.42,5.2-6.65,10.75-8.22,16.77A40.93,40.93,0,0,1,868.55,321.48ZM830.9,313c1.45,6-.13,13.07-4.82,21.7-6.65,12.23-17.35,22.92-31.93,31.88a81.62,81.62,0,0,1-8.47,4.94q-4.3,1.85-8.54,3.76a182.55,182.55,0,0,1,46.36-73.06A19.59,19.59,0,0,1,830.9,313ZM794.65,439l-.25,0c-12.82,2.72-27.28,1.4-41.81-3.81-10.76-3.86-21.66-9.78-34-18.49a83.93,83.93,0,0,1,8.19-2.27l.62-.15c6.08-1.49,13.32-3,20.74-2.67h.14a100.88,100.88,0,0,1,22.14,2.28c10.82,2.31,17.9,6.22,21.64,12A19.37,19.37,0,0,1,794.65,439Zm-58.43,36.8a184.24,184.24,0,0,0-75.13-13.08c5-3.92,14.2-10.23,15.59-11,8-3.78,17.71-6,28.75-6.5h0a43.65,43.65,0,0,1,12.41.77,25.55,25.55,0,0,1,18.49,19A24.84,24.84,0,0,1,736.22,475.8Zm-16.87-35.88a49.59,49.59,0,0,0-14.23-.95,88.93,88.93,0,0,0-23.84,4.21c9.16-7.63,18.83-15.07,29-22.23a104.73,104.73,0,0,1,8.56,12c1.93,3,3.93,6.07,6.12,9A30.22,30.22,0,0,0,719.35,439.92Zm52.37-32.16a112.64,112.64,0,0,0-23.41-2.42,70.66,70.66,0,0,0-16.81,1.59,423.81,423.81,0,0,1,37.11-20.51c4.68,8.45,10.32,17.79,17.53,26.27A56.57,56.57,0,0,0,771.72,407.76Zm-1-80.24c4.43-12,13-21.67,23.56-26.6a34.1,34.1,0,0,1,14.4-3.38,26.52,26.52,0,0,1,7.54,1.06c.5.15,1,.32,1.48.5a188.93,188.93,0,0,0-46.39,73.77c-.88-3.16-1.59-6.06-2.16-8.83h0C766.25,349.9,766.75,338.29,770.74,327.52Zm-26.91,1c4.85,6,5.7,14.33,5.56,20.3A61,61,0,0,1,735.59,386,126.92,126.92,0,0,1,724.87,397c-3.2,3-6.47,6.15-9.48,9.54-2.25-12.37-1.2-26.44,3.14-41.1,4.46-15,11.78-29.35,18.5-42.15A20,20,0,0,1,743.83,328.52Zm-51.67,52.61a57.19,57.19,0,0,1,3.66-37.73c4.81-10.21,12.56-17.88,21.26-21a26.56,26.56,0,0,1,9-1.56,26.92,26.92,0,0,1,4.93.47c-6.73,12.82-14,27.12-18.48,42.37-4.86,16.39-5.84,32.17-2.91,46A57.3,57.3,0,0,1,692.16,381.13Zm-17.31,33.74c-1.5,14-8.68,26.74-17.06,39.45a96,96,0,0,1-4.62-83.49s0-.08,0-.12a18.1,18.1,0,0,1,2.69,1C669.73,378.54,676.51,399.42,674.85,414.87Zm-49.61,7.68a48.83,48.83,0,0,1-2.41-26.78c1.7-8.07,8.6-19.14,18-23.74a19.36,19.36,0,0,1,5.73-1.8,102.58,102.58,0,0,0,3.55,83.14A63.64,63.64,0,0,1,625.24,422.55Zm102.24,67.38a33.12,33.12,0,0,1-15.54,6.35,47.09,47.09,0,0,1-32.58-7c-7.82-5.09-12.76-12.39-17.53-20.32a178,178,0,0,1,72.26,12.73A24.89,24.89,0,0,1,727.48,489.93Zm60.46-37.42c-6.89,6.62-17.77,9.17-28.4,6.66-11.69-2.76-20.69-10.68-26.18-16.84a102.81,102.81,0,0,1-9.21-12.81L722.51,427a137,137,0,0,0,28,14.16,90.43,90.43,0,0,0,30.41,5.55,71.87,71.87,0,0,0,11.82-1A22.13,22.13,0,0,1,787.94,452.51Zm42.55-20.1c-12.41-1.66-25-8.53-35.54-19.35a113,113,0,0,1-13.88-17.92A154.67,154.67,0,0,0,862,421.35C854.91,430.83,841.43,433.86,830.49,432.41Zm7.59-46.17c6.75,1.71,15.27,4.41,21.28,10.17,4.5,4.31,8.13,11.87,6,18.7a148.1,148.1,0,0,1-88-30.48A139.32,139.32,0,0,1,838.08,386.24Zm71.84,34c-9.37-2.17-18.48-8.82-25.66-18.7a72,72,0,0,1-11.65-25.66,74.47,74.47,0,0,1-1.78-17.44c0-.15,0-.32,0-.47,7.13,10.13,16.34,22.16,27.46,32.45,11.74,10.86,24.2,18.55,37.11,22.92C929.53,419.65,919.53,422.47,909.92,420.24Zm16.26-50.94c8,5.29,13.51,13.17,15.2,21.62a25.78,25.78,0,0,1-2.31,17c-12.65-4-24.92-11.4-36.51-22.12-10.87-10.06-19.92-21.95-26.9-31.9l.71.16c.83.19,1.58.36,2.17.45a186.37,186.37,0,0,1,37.51,9.93A53,53,0,0,1,926.18,369.3Zm103.14-73.74c-2.32,12.64-11.55,24.64-24.69,32.1-9.14,5.18-18.87,7.57-28,8.87-1.4,0-2.78-.06-4.17-.08a116.71,116.71,0,0,1,53.74-59.17C1029.52,282.39,1030.44,289.5,1029.32,295.56Zm-64.29,18a41.8,41.8,0,0,1,7.25-19.47c8.92-13.38,24.09-22.91,37.73-23.72.79-.05,1.54-.07,2.26-.07a19.32,19.32,0,0,1,7.06,1.13,14.38,14.38,0,0,1,2.31,1.19,123.15,123.15,0,0,0-54.74,60.88A63.26,63.26,0,0,1,965,313.55Zm48.48,97.2a30,30,0,0,1-13.1-2.35c-9.47-3.7-18.06-10.49-24.84-19.63-6-8.07-10.59-18-13.67-29.46a43.31,43.31,0,0,1-1.81-11.65,720.56,720.56,0,0,1,59.8,61.53A20.93,20.93,0,0,1,1013.51,410.75ZM1033,374.1a29.35,29.35,0,0,1-.72,23.66,24.57,24.57,0,0,1-6.8,8.21,727.22,727.22,0,0,0-60-62c9.87-.15,19.68,1.69,28.25,3.63,9.11,2.05,16.52,4.22,23.11,8.1A37.88,37.88,0,0,1,1033,374.1ZM1141.42,371a23.13,23.13,0,0,1-4.78,6.33c-15.29,15-40.49,6.78-50.62,2.57a98.05,98.05,0,0,1-25.65-15.68l-1.23-1c-8.7-7.22-12.33-11.61-13.7-14.25a676.65,676.65,0,0,1,77.8,16.46,3.15,3.15,0,1,0,1.66-6.07A683.53,683.53,0,0,0,1048.29,343l.67-.36c13.08-6.84,24.82-11.12,35.89-13.09,1.55-.28,3.12-.52,4.69-.71,14.45-1.75,27.3,1.66,39.3,10.43,5.85,4.27,10,9.09,12.31,14.31C1143.76,359.46,1143.86,366,1141.42,371Z" fill="#000000"/></svg>